#!OML:ASF H:\ColoradoDance\Project 1\Capture day 1\Session 8\male.ASF
:FULLY-SPECIFIED
:DEGREES
15
upperback -2.888990 -1.255920 0.832361
rfoot -12.696400 -23.604799
lradius 31.047501
lthumb 8.752600 50.237499
rradius 29.237900
lwrist -8.977560
rhand -33.740799 -29.610300
rhumerus -30.074699 -5.400930 -66.882202
lowerneck -3.968690 -3.667280 -1.108320
lhand -17.500299 20.438999
ltibia 59.746700
head 1.915870 -2.418180 -0.209103
rwrist 8.585390
lfingers 7.125020
rtoes 2.125580
lowerback 4.524300 -1.163990 3.376460
rfingers 7.125020
lclavicle -0.000000 -0.000000
upperneck 3.965080 -4.783100 -0.829531
rfemur -54.911400 -31.067699 34.893200
thorax -5.596480 -0.723015 -0.911853
rclavicle -0.000000 -0.000000
rtibia 51.722000
lfoot -18.753901 -2.999470
lhumerus -30.754000 7.509240 56.603100
rthumb -6.929380 -59.476898
root -28.672001 18.727200 6.339550 -159.774002 75.397202 -174.347000
ltoes 4.325060
lfemur -21.152901 18.630800 -11.057300
16
upperback -2.888200 -1.383390 2.224440
rfoot 1.359780 -17.194401
lradius 38.902500
lthumb 6.222440 55.313099
rradius 25.330799
lwrist -3.289280
rhand -15.938400 -34.003799
rhumerus -34.816601 -12.834500 -57.420101
lowerneck -2.486520 -1.093120 2.905790
lhand -20.121599 25.424400
ltibia 29.131100
head 1.459990 -0.742010 -0.975789
rwrist 9.166830
lfingers 7.125020
rtoes -3.693570
lowerback 1.973010 -1.258300 4.070750
rfingers 7.125020
lclavicle -0.000000 0.000000
upperneck 3.461900 -1.512980 -1.463470
rfemur -58.947300 -21.299801 44.217602
thorax -4.133730 -0.753023 0.092605
rclavicle -0.000000 0.000000
rtibia 46.858700
lfoot -19.587099 1.388780
lhumerus -23.955000 -1.314570 65.015602
rthumb 10.259600 -63.733501
root -30.678301 18.791901 8.061060 -129.526993 80.222298 -144.205994
ltoes 2.358520
lfemur -6.380080 2.229540 -31.431900
17
upperback -2.929600 -0.553877 2.393880
rfoot 0.399784 -11.807600
lradius 41.250999
lthumb 4.842470 55.398201
rradius 26.446899
lwrist -6.707890
rhand -6.565810 -28.396200
rhumerus -37.655499 -10.184700 -58.008598
lowerneck -3.213190 0.272515 4.430420
lhand -21.550900 25.473499
ltibia 33.928200
head 1.557910 0.137948 -2.488480
rwrist 10.413500
lfingers 7.125020
rtoes -5.899200
lowerback 2.833630 -0.728873 5.153160
rfingers 7.125020
lclavicle 0.000000 -0.000000
upperneck 3.086230 0.367127 -5.392710
rfemur -54.714901 -18.128000 23.252001
thorax -4.657780 -0.377814 -0.371184
rclavicle 0.000000 -0.000000
rtibia 59.073601
lfoot -27.640400 12.017700
lhumerus -29.013500 -5.139040 68.775803
rthumb 19.288401 -57.459599
root -33.447601 18.718000 8.876970 -107.483002 82.224701 -121.783997
ltoes 17.910101
lfemur -17.949200 0.266440 -31.634899
18
upperback -3.902040 2.571480 3.559920
rfoot 2.446960 -20.643000
lradius 22.849800
lthumb 20.089701 56.150398
rradius 25.332500
lwrist -21.103800
rhand -3.246840 -29.764500
rhumerus -33.285500 -7.786010 -58.900398
lowerneck -3.741790 3.852180 8.546510
lhand -5.732310 27.169100
ltibia 40.449200
head 2.656350 2.511300 -3.734020
rwrist 10.269400
lfingers 7.125020
rtoes 44.882198
lowerback 1.719990 1.395430 9.678870
rfingers 7.125020
lclavicle 0.000000 0.000000
upperneck 5.414240 5.183060 -8.395940
rfemur -20.729200 -21.154800 16.749399
thorax -4.819740 1.043280 -1.840730
rclavicle 0.000000 0.000000
rtibia 65.951401
lfoot -27.822399 18.856899
lhumerus -40.761299 8.635830 56.896099
rthumb 22.477100 -58.476501
root -35.083801 18.583700 8.343880 -28.516001 74.009804 -42.405300
ltoes 17.235701
lfemur -29.531300 10.973500 -33.131599
